<!-- Generator: Adobe Illustrator 18.0.0, SVG Export Plug-In  -->
<svg version="1.1"
	 xmlns="http://www.w3.org/2000/svg" xmlns:xlink="http://www.w3.org/1999/xlink" xmlns:a="http://ns.adobe.com/AdobeSVGViewerExtensions/3.0/"
	 x="0px" y="0px" width="60.7px" height="42.4px" viewBox="0 0 60.7 42.4" enable-background="new 0 0 60.7 42.4"
	 xml:space="preserve">
<defs>
</defs>
<path fill="#271196" d="M35.1,1.7L35.1,1.7c-2.2,2.2-2.2,5.8,0,8l4.2,4.2c0.6,0.6,0.2,1.7-0.7,1.7H5.6c-3.1,0-5.6,2.5-5.6,5.6l0,0
	c0,3.1,2.5,5.6,5.6,5.6h32.9c0.9,0,1.4,1.1,0.7,1.7l-4.2,4.2c-2.2,2.2-2.2,5.8,0,8l0,0c2.2,2.2,5.8,2.2,8,0l16.3-16.3
	c1.8-1.8,1.8-4.7,0-6.5L43,1.7C40.8-0.6,37.3-0.6,35.1,1.7z"/>
</svg>